<?xml version="1.0" standalone="no"?>
<!DOCTYPE svg PUBLIC "-//W3C//DTD SVG 20010904//EN"
 "http://www.w3.org/TR/2001/REC-SVG-20010904/DTD/svg10.dtd">
<svg version="1.0" xmlns="http://www.w3.org/2000/svg"
 width="1640.000000pt" height="624.000000pt" viewBox="0 0 1640.000000 624.000000"
 preserveAspectRatio="xMidYMid meet">
<metadata>
Created by potrace 1.16, written by Peter Selinger 2001-2019
</metadata>
<g transform="translate(0.000000,624.000000) scale(0.100000,-0.100000)"
fill="#000000" stroke="none">
<path d="M0 3120 l0 -3120 8200 0 8200 0 0 3120 0 3120 -8200 0 -8200 0 0
-3120z m8485 2715 c510 -74 852 -199 1222 -444 174 -115 261 -187 428 -355
224 -224 373 -433 510 -711 120 -246 198 -487 244 -757 28 -163 36 -275 34
-483 -9 -1132 -726 -2141 -1794 -2528 -199 -73 -326 -103 -624 -149 -46 -7
-177 -12 -310 -12 -185 1 -258 5 -370 22 -632 97 -1159 367 -1591 815 -795
822 -986 2058 -479 3092 139 283 286 487 520 720 94 95 208 196 276 247 430
322 916 505 1464 551 59 5 423 -1 470 -8z"/>
<path d="M7215 3736 c-83 -36 -131 -146 -122 -276 10 -150 88 -237 202 -228
97 8 144 67 153 190 l5 68 -92 0 -92 0 3 -37 c3 -37 4 -38 47 -41 43 -3 43 -4
37 -35 -8 -40 -39 -67 -78 -67 -99 0 -136 242 -50 333 35 37 73 36 107 -5 l27
-32 34 19 c40 21 41 27 14 65 -39 54 -128 75 -195 46z"/>
<path d="M6190 3490 l0 -250 158 0 158 0 -1 38 -1 37 -112 3 -112 3 0 209 0
210 -45 0 -45 0 0 -250z"/>
<path d="M6650 3490 l0 -250 45 0 45 0 0 98 c1 82 4 101 21 121 11 13 21 22
23 20 2 -2 31 -57 65 -121 l63 -118 50 0 50 0 -63 118 c-34 64 -72 135 -86
158 l-23 41 71 92 70 91 -50 0 -50 0 -70 -91 -71 -92 0 92 0 91 -45 0 -45 0 0
-250z"/>
<path d="M9440 3700 l0 -40 50 0 50 0 0 -170 0 -170 -50 0 -50 0 0 -40 0 -40
145 0 145 0 0 40 0 40 -50 0 -50 0 0 170 0 170 50 0 50 0 0 40 0 40 -145 0
-145 0 0 -40z"/>
<path d="M9860 3700 l0 -40 70 0 70 0 0 -210 0 -210 45 0 45 0 0 210 0 210 70
0 70 0 0 40 0 40 -185 0 -185 0 0 -40z"/>
<path d="M8626 3595 c-33 -17 -50 -19 -41 -5 4 6 -10 10 -34 10 l-41 0 0 -180
0 -180 40 0 40 0 0 119 c0 105 2 121 21 145 14 18 30 26 52 26 65 0 77 -28 77
-175 l0 -116 43 3 42 3 -1 135 c-1 151 -12 188 -64 215 -37 19 -97 19 -134 0z"/>
<path d="M8070 3560 l0 -40 50 0 50 0 0 -100 0 -100 -50 0 -50 0 0 -40 0 -40
140 0 140 0 0 40 0 40 -50 0 -50 0 0 140 0 140 -90 0 -90 0 0 -40z"/>
<path d="M7746 2891 c-12 -14 -16 -32 -14 -67 l3 -49 455 -1 c250 0 461 2 468
4 17 6 15 83 -4 110 l-15 22 -438 0 c-417 0 -439 -1 -455 -19z"/>
<path d="M7732 2413 l3 -328 445 -3 c245 -1 455 0 468 3 l22 5 0 325 0 325
-470 0 -470 0 2 -327z"/>
</g>
</svg>
